<svg width="1441" height="3238" viewBox="0 0 1441 3238" fill="none" xmlns="http://www.w3.org/2000/svg">
<g opacity="0.4">
<path d="M0 60H1440" stroke="#D6D6D6"/>
<path d="M0 120H1440" stroke="#D6D6D6"/>
<path d="M0 180H1440" stroke="#D6D6D6"/>
<path d="M0 240H1440" stroke="#D6D6D6"/>
<path d="M0 300H1440" stroke="#D6D6D6"/>
<path d="M0 360H1440" stroke="#D6D6D6"/>
<path d="M0 420H1440" stroke="#D6D6D6"/>
<path d="M0 480H1440" stroke="#D6D6D6"/>
<path d="M0 540H1440" stroke="#D6D6D6"/>
<path d="M0 600H1440" stroke="#D6D6D6"/>
<path d="M0 660H1440" stroke="#D6D6D6"/>
<path d="M0 720H1440" stroke="#D6D6D6"/>
<path d="M0 780H1440" stroke="#D6D6D6"/>
<path d="M0 840H1440" stroke="#D6D6D6"/>
<path d="M0 900H1440" stroke="#D6D6D6"/>
<path d="M0 960H1440" stroke="#D6D6D6"/>
<path d="M0 1020H1440" stroke="#D6D6D6"/>
<path d="M0 1080H1440" stroke="#D6D6D6"/>
<path d="M0 1140H1440" stroke="#D6D6D6"/>
<path d="M0 1200H1440" stroke="#D6D6D6"/>
<path d="M0 1260H1440" stroke="#D6D6D6"/>
<path d="M0 1320H1440" stroke="#D6D6D6"/>
<path d="M0 1380H1440" stroke="#D6D6D6"/>
<path d="M0 1440H1440" stroke="#D6D6D6"/>
<path d="M0 1500H1440" stroke="#D6D6D6"/>
<path d="M0 1560H1440" stroke="#D6D6D6"/>
<path d="M0 1620H1440" stroke="#D6D6D6"/>
<path d="M0 1680H1440" stroke="#D6D6D6"/>
<path d="M0 1740H1440" stroke="#D6D6D6"/>
<path d="M0 1800H1440" stroke="#D6D6D6"/>
<path d="M0 1860H1440" stroke="#D6D6D6"/>
<path d="M0 1920H1440" stroke="#D6D6D6"/>
<path d="M0 1980H1440" stroke="#D6D6D6"/>
<path d="M0 2040H1440" stroke="#D6D6D6"/>
<path d="M0 2100H1440" stroke="#D6D6D6"/>
<path d="M0 2160H1440" stroke="#D6D6D6"/>
<path d="M0 2220H1440" stroke="#D6D6D6"/>
<path d="M0 2280H1440" stroke="#D6D6D6"/>
<path d="M0 2340H1440" stroke="#D6D6D6"/>
<path d="M0 2400H1440" stroke="#D6D6D6"/>
<path d="M0 2460H1440" stroke="#D6D6D6"/>
<path d="M0 2520H1440" stroke="#D6D6D6"/>
<path d="M0 2580H1440" stroke="#D6D6D6"/>
<path d="M0 2640H1440" stroke="#D6D6D6"/>
<path d="M0 2700H1440" stroke="#D6D6D6"/>
<path d="M0 2760H1440" stroke="#D6D6D6"/>
<path d="M0 2820H1440" stroke="#D6D6D6"/>
<path d="M0 2880H1440" stroke="#D6D6D6"/>
<path d="M0 2940H1440" stroke="#D6D6D6"/>
<path d="M0 3000H1440" stroke="#D6D6D6"/>
<path d="M0 3060H1440" stroke="#D6D6D6"/>
<path d="M0 3120H1440" stroke="#D6D6D6"/>
<path d="M0 3180H1440" stroke="#D6D6D6"/>
<path d="M60 0V3238" stroke="#D6D6D6"/>
<path d="M120 0V3238" stroke="#D6D6D6"/>
<path d="M180 0V3238" stroke="#D6D6D6"/>
<path d="M240 0V3238" stroke="#D6D6D6"/>
<path d="M300 0V3238" stroke="#D6D6D6"/>
<path d="M360 0V3238" stroke="#D6D6D6"/>
<path d="M420 0V3238" stroke="#D6D6D6"/>
<path d="M480 0V3238" stroke="#D6D6D6"/>
<path d="M540 0V3238" stroke="#D6D6D6"/>
<path d="M600 0V3238" stroke="#D6D6D6"/>
<path d="M660 0V3238" stroke="#D6D6D6"/>
<path d="M720 0V3238" stroke="#D6D6D6"/>
<path d="M780 0V3238" stroke="#D6D6D6"/>
<path d="M840 0V3238" stroke="#D6D6D6"/>
<path d="M900 0V3238" stroke="#D6D6D6"/>
<path d="M960 0V3238" stroke="#D6D6D6"/>
<path d="M1020 0V3238" stroke="#D6D6D6"/>
<path d="M1080 0V3238" stroke="#D6D6D6"/>
<path d="M1140 0V3238" stroke="#D6D6D6"/>
<path d="M1200 0V3238" stroke="#D6D6D6"/>
<path d="M1260 0V3238" stroke="#D6D6D6"/>
<path d="M1320 0V3238" stroke="#D6D6D6"/>
<path d="M1380 0V3238" stroke="#D6D6D6"/>
<path d="M1440 0V3238" stroke="#D6D6D6"/>
</g>
</svg>
