<svg width="121" height="22" viewBox="0 0 121 22" fill="none" xmlns="http://www.w3.org/2000/svg">
<g clip-path="url(#clip0_23_2)">
<path d="M51.3361 0.76416H70.3962C71.3181 0.76416 72.2028 1.12125 72.8545 1.75629C73.5063 2.39132 73.8727 3.25311 73.8727 4.1512H54.8125C53.8907 4.1512 53.006 3.79411 52.3542 3.15907C51.7025 2.52404 51.3361 1.66225 51.3361 0.76416Z" fill="white"/>
<path d="M51.3361 6.45898H70.3962C71.3181 6.45898 72.2028 6.81608 72.8545 7.45111C73.5063 8.08615 73.8727 8.94793 73.8727 9.84603H54.8125C53.8907 9.84603 53.006 9.48893 52.3542 8.8539C51.7025 8.21887 51.3361 7.35708 51.3361 6.45898Z" fill="white"/>
<path d="M51.3361 12.1543H70.3962C71.3181 12.1543 72.2028 12.5114 72.8545 13.1464C73.5063 13.7815 73.8727 14.6432 73.8727 15.5413H54.8125C53.8907 15.5413 53.006 15.1842 52.3542 14.5492C51.7025 13.9142 51.3361 13.0524 51.3361 12.1543Z" fill="white"/>
<path d="M51.3361 17.8486H70.3962C71.3181 17.8486 72.2028 18.2057 72.8545 18.8408C73.5063 19.4758 73.8727 20.3376 73.8727 21.2357H54.8125C53.8907 21.2357 53.006 20.8786 52.3542 20.2435C51.7025 19.6085 51.3361 18.7467 51.3361 17.8486Z" fill="white"/>
<path d="M36.9364 0C30.7133 0 25.6681 4.92493 25.6681 11.0003C25.6681 17.0757 30.7133 22 36.9364 22C43.1595 22 48.2047 17.0751 48.2047 11.0003C48.2047 4.92552 43.1601 0 36.9364 0ZM36.9364 16.5001C30.7133 16.5001 26.2918 11.0003 26.2918 11.0003C26.2918 11.0003 30.7133 5.50045 36.9364 5.50045C43.1595 5.50045 47.8932 11.0003 47.8932 11.0003C47.8932 11.0003 43.1601 16.5001 36.9364 16.5001Z" fill="white"/>
<path d="M36.9365 7.85352C35.1543 7.85352 33.7136 9.25987 33.7136 10.9995C33.7136 12.7392 35.1543 14.1455 36.9365 14.1455C38.7186 14.1455 40.1593 12.7392 40.1593 10.9995C40.1593 9.25987 38.7186 7.85352 36.9365 7.85352Z" fill="white"/>
<path d="M20.126 8.64239C19.7694 8.64239 19.3523 8.76618 19.3523 8.76618L12.1897 10.6463C12.1696 10.6516 12.1586 10.6249 12.1763 10.6147L18.6024 7.00035C18.6024 7.00035 18.9865 6.80038 19.2389 6.55398C20.1815 5.63387 20.1815 4.14478 19.2359 3.22229C18.2909 2.2998 16.7648 2.2998 15.8228 3.21931C15.5704 3.46571 15.3656 3.84066 15.3656 3.84066L11.6629 10.1136C11.6525 10.1309 11.6251 10.1202 11.6306 10.1005L13.5566 3.10861C13.5566 3.10861 13.6834 2.70212 13.6834 2.35336C13.6834 1.05235 12.6043 -0.000488281 11.2678 -0.000488281C9.93139 -0.000488281 8.85223 1.05294 8.85223 2.35336C8.85223 2.70153 8.97905 3.10861 8.97905 3.10861L10.9051 10.0999C10.9106 10.1196 10.8831 10.1303 10.8727 10.113L7.17009 3.84006C7.17009 3.84006 6.96524 3.46511 6.71282 3.21872C5.77024 2.29861 4.24479 2.29861 3.29977 3.22169C2.35475 4.14419 2.35475 5.63387 3.29672 6.55339C3.54913 6.79978 3.93324 6.99975 3.93324 6.99975L10.3594 10.6141C10.3771 10.6243 10.3661 10.651 10.346 10.6457L3.18332 8.76559C3.18332 8.76559 2.7669 8.64179 2.40962 8.64179C1.07684 8.64179 -0.00170898 9.69522 -0.00170898 10.9998C-0.00170898 12.3044 1.07744 13.3578 2.40962 13.3578C2.76629 13.3578 3.18332 13.234 3.18332 13.234L10.3454 11.3539C10.3655 11.3486 10.3765 11.3754 10.3588 11.3855L3.93263 14.9999C3.93263 14.9999 3.54852 15.1998 3.29611 15.4462C2.35353 16.3663 2.35353 17.8554 3.29916 18.7779C4.24418 19.7004 5.77024 19.7004 6.71221 18.7809C6.96463 18.5345 7.16948 18.1596 7.16948 18.1596L10.8721 11.8866C10.8825 11.8693 10.9099 11.88 10.9045 11.8997L8.97844 18.891C8.97844 18.891 8.85162 19.2975 8.85162 19.6463C8.85162 20.9473 9.93078 22.0001 11.2672 22.0001C12.6037 22.0001 13.6828 20.9467 13.6828 19.6463C13.6828 19.2981 13.556 18.891 13.556 18.891L11.63 11.8991C11.6245 11.8795 11.6519 11.8687 11.6623 11.886L15.365 18.159C15.365 18.159 15.5698 18.5339 15.8222 18.7803C16.7648 19.7004 18.2903 19.7004 19.2353 18.7773C20.1803 17.8548 20.1803 16.3652 19.2383 15.4456C18.9859 15.1992 18.6018 14.9993 18.6018 14.9993L12.1757 11.3849C12.158 11.3748 12.169 11.348 12.1891 11.3533L19.3511 13.2334C19.3511 13.2334 19.7675 13.3572 20.1248 13.3572C21.4576 13.3572 22.5361 12.3038 22.5361 10.9992C22.5361 9.69463 21.457 8.6412 20.1248 8.6412L20.126 8.64239Z" fill="white"/>
<path d="M78.521 8.86133H80.0568V21.4555H78.521V8.86133Z" fill="white"/>
<path d="M89.0918 21.456H87.6463V20.0098H87.6103C86.9598 21.1388 85.9117 21.6679 84.5746 21.6679C82.117 21.6679 81.3585 20.2919 81.3585 18.3338V12.3364H82.8943V18.51C82.8943 19.6212 83.6174 20.3443 84.7917 20.3443C86.6531 20.3443 87.5566 19.1272 87.5566 17.4869V12.3364H89.0925V21.456H89.0918Z" fill="white"/>
<path d="M90.3197 12.3364H91.7653V13.6767H91.8012C92.4878 12.6536 93.5358 12.1245 94.8192 12.1245C95.9575 12.1245 97.0056 12.5655 97.3848 13.6767C98.0171 12.7066 99.1194 12.1245 100.312 12.1245C102.173 12.1245 103.42 12.8827 103.42 14.7706V21.456H101.884V15.4764C101.884 14.3474 101.577 13.4481 100.077 13.4481C98.5774 13.4481 97.6378 14.3653 97.6378 15.7764V21.456H96.102V15.4764C96.102 14.2945 95.7228 13.4481 94.3492 13.4481C92.5243 13.4481 91.8555 15.0884 91.8555 15.7764V21.456H90.3197V12.3364Z" fill="white"/>
<path d="M112.617 18.5629C112.201 20.574 110.719 21.6679 108.623 21.6679C105.642 21.6679 104.232 19.6568 104.142 16.8697C104.142 14.1356 105.985 12.1245 108.533 12.1245C111.84 12.1245 112.852 15.1408 112.761 17.3458H105.768C105.714 18.9331 106.636 20.3442 108.678 20.3442C109.943 20.3442 110.828 19.7443 111.099 18.5623H112.617L112.617 18.5629ZM111.135 16.0228C111.063 14.5938 109.961 13.4475 108.443 13.4475C106.834 13.4475 105.877 14.6295 105.769 16.0228H111.135Z" fill="white"/>
<path d="M113.266 12.3364H114.712V13.7826H114.748C115.398 12.6536 116.446 12.1245 117.783 12.1245C120.241 12.1245 120.999 13.5005 120.999 15.4586V21.456H119.464V15.2824C119.464 14.1713 118.741 13.4481 117.566 13.4481C115.705 13.4481 114.801 14.6652 114.801 16.3055V21.456H113.266V12.3364H113.266Z" fill="white"/>
</g>
<defs>
<clipPath id="clip0_23_2">
<rect width="121" height="22" fill="white"/>
</clipPath>
</defs>
</svg>
